# Blender v2.78 (sub 0) OBJ File: 'psyk01.blend'
# www.blender.org
mtllib psyk01.mtl
o Cube
v 1.000000 -1.000000 -1.000000
v 1.000000 -1.000000 1.000000
v -1.000000 -1.000000 1.000000
v -1.000000 -1.000000 -1.000000
v 1.000000 1.000000 -0.999999
v 0.999999 1.000000 1.000001
v -1.000000 1.000000 1.000000
v -1.000000 1.000000 -1.000000
v 1.000000 -1.000000 -0.333333
v 1.000000 -1.000000 0.333333
v 0.333333 -1.000000 -1.000000
v -0.333333 -1.000000 -1.000000
v 1.000000 -0.333333 -1.000000
v 1.000000 0.333333 -1.000000
v 0.333333 -1.000000 1.000000
v -0.333333 -1.000000 1.000000
v 1.000000 -0.333333 1.000000
v 1.000000 0.333333 1.000000
v -1.000000 -1.000000 0.333333
v -1.000000 -1.000000 -0.333334
v -1.000000 -0.333333 1.000000
v -1.000000 0.333333 1.000000
v -1.000000 -0.333333 -1.000000
v -1.000000 0.333333 -1.000000
v 1.000000 1.000000 -0.333333
v 1.000000 1.000000 0.333334
v 0.333334 1.000000 -1.000000
v -0.333333 1.000000 -1.000000
v 0.333333 1.000000 1.000000
v -0.333334 1.000000 1.000000
v -1.000000 1.000000 0.333333
v -1.000000 1.000000 -0.333333
v 0.333334 0.333333 -1.000000
v -0.333333 0.333333 -1.000000
v 0.333333 -0.333333 -1.000000
v -0.333333 -0.333333 -1.000000
v -1.000000 -0.333333 0.333333
v -1.000000 -0.333333 -0.333334
v -1.000000 0.333333 0.333333
v -1.000000 0.333333 -0.333334
v 0.333333 -0.333333 1.000000
v -0.333334 -0.333333 1.000000
v 0.333333 0.333333 1.000000
v -0.333334 0.333333 1.000000
v 1.000000 -0.333333 -0.333333
v 1.000000 -0.333333 0.333334
v 1.000000 0.333333 -0.333333
v 1.000000 0.333333 0.333334
v 0.333333 1.000000 -0.333333
v 0.333333 1.000000 0.333334
v -0.333333 1.000000 -0.333333
v -0.333334 1.000000 0.333333
v 0.333333 -1.000000 -0.333333
v -0.333333 -1.000000 -0.333334
v 0.333333 -1.000000 0.333333
v -0.333333 -1.000000 0.333333
v 0.333334 0.333333 -1.000000
v -0.333333 0.333333 -1.000000
v 0.333333 -0.333333 -1.000000
v -0.333333 -0.333333 -1.000000
v -1.000000 -0.333333 0.333333
v -1.000000 -0.333333 -0.333334
v -1.000000 0.333333 0.333333
v -1.000000 0.333333 -0.333334
v 1.000000 -0.333333 -0.333333
v 1.000000 -0.333333 0.333334
v 1.000000 0.333333 -0.333333
v 1.000000 0.333333 0.333334
v 0.333333 1.000000 -0.333333
v 0.333333 1.000000 0.333334
v -0.333333 1.000000 -0.333333
v -0.333334 1.000000 0.333333
v 0.333333 -1.000000 -0.333333
v -0.333333 -1.000000 -0.333334
v 0.333333 -1.000000 0.333333
v -0.333333 -1.000000 0.333333
v 0.333334 0.333333 -1.000000
v -0.333333 0.333333 -1.000000
v 0.333333 -0.333333 -1.000000
v -0.333333 -0.333333 -1.000000
v -1.000000 -0.333333 0.333333
v -1.000000 -0.333333 -0.333334
v -1.000000 0.333333 0.333333
v -1.000000 0.333333 -0.333334
v 1.000000 -0.333333 -0.333333
v 1.000000 -0.333333 0.333334
v 1.000000 0.333333 -0.333333
v 1.000000 0.333333 0.333334
v 0.333333 1.000000 -0.333333
v 0.333333 1.000000 0.333334
v -0.333333 1.000000 -0.333333
v -0.333334 1.000000 0.333333
v 0.333333 -1.000000 -0.333333
v -0.333333 -1.000000 -0.333334
v 0.333333 -1.000000 0.333333
v -0.333333 -1.000000 0.333333
v 0.333333 -0.333333 1.000000
v -0.333334 -0.333333 1.000000
v 0.333333 0.333333 1.000000
v -0.333334 0.333333 1.000000
v 0.333334 0.333333 -1.000000
v -0.333333 0.333333 -1.000000
v 0.333333 -0.333333 -1.000000
v -0.333333 -0.333333 -1.000000
v -1.000000 -0.333333 0.333333
v -1.000000 -0.333333 -0.333334
v -1.000000 0.333333 0.333333
v -1.000000 0.333333 -0.333334
v 1.000000 -0.333333 -0.333333
v 1.000000 -0.333333 0.333334
v 1.000000 0.333333 -0.333333
v 1.000000 0.333333 0.333334
v 0.333333 1.000000 -0.333333
v 0.333333 1.000000 0.333334
v -0.333333 1.000000 -0.333333
v -0.333334 1.000000 0.333333
v 0.333333 -1.000000 -0.333333
v -0.333333 -1.000000 -0.333334
v 0.333333 -1.000000 0.333333
v -0.333333 -1.000000 0.333333
v 0.333333 -0.333333 1.000000
v -0.333334 -0.333333 1.000000
v 0.333333 0.333333 1.000000
v -0.333334 0.333333 1.000000
v 0.333334 0.333333 -1.000000
v -0.333333 0.333333 -1.000000
v 0.333333 -0.333333 -1.000000
v -0.333333 -0.333333 -1.000000
v -1.000000 -0.333333 0.333333
v -1.000000 -0.333333 -0.333334
v -1.000000 0.333333 0.333333
v -1.000000 0.333333 -0.333334
v 1.000000 -0.333333 -0.333333
v 1.000000 -0.333333 0.333334
v 1.000000 0.333333 -0.333333
v 1.000000 0.333333 0.333334
v 0.333333 1.000000 -0.333333
v 0.333333 1.000000 0.333334
v -0.333333 1.000000 -0.333333
v -0.333334 1.000000 0.333333
v 0.333333 -1.000000 -0.333333
v -0.333333 -1.000000 -0.333334
v 0.333333 -1.000000 0.333333
v -0.333333 -1.000000 0.333333
v 0.333333 -0.333333 1.000000
v -0.333334 -0.333333 1.000000
v 0.333333 0.333333 1.000000
v -0.333334 0.333333 1.000000
v 0.333334 0.333333 -1.000000
v -0.333333 0.333333 -1.000000
v 0.333333 -0.333333 -1.000000
v -0.333333 -0.333333 -1.000000
v -1.000000 -0.333333 0.333333
v -1.000000 -0.333333 -0.333334
v -1.000000 0.333333 0.333333
v -1.000000 0.333333 -0.333334
v 1.000000 -0.333333 -0.333333
v 1.000000 -0.333333 0.333334
v 1.000000 0.333333 -0.333333
v 1.000000 0.333333 0.333334
v 0.333333 1.000000 -0.333333
v 0.333333 1.000000 0.333334
v -0.333333 1.000000 -0.333333
v -0.333334 1.000000 0.333333
v 0.333333 -1.000000 -0.333333
v -0.333333 -1.000000 -0.333334
v 0.333333 -1.000000 0.333333
v -0.333333 -1.000000 0.333333
v 0.333333 -0.333333 2.028587
v 0.333333 0.333333 2.028587
v -0.333334 0.333333 2.028587
v -0.333334 -0.333333 2.028587
v 0.333334 0.333333 -2.028587
v 0.333334 -0.333333 -2.028587
v -0.333333 -0.333333 -2.028587
v -0.333333 0.333333 -2.028587
v -2.028587 -0.333333 0.333333
v -2.028587 0.333333 0.333333
v -2.028587 0.333333 -0.333334
v -2.028587 -0.333333 -0.333334
v 2.028587 -0.333333 -0.333333
v 2.028587 0.333333 -0.333333
v 2.028587 0.333333 0.333334
v 2.028587 -0.333333 0.333334
v 0.333333 2.028587 -0.333333
v -0.333333 2.028587 -0.333333
v -0.333334 2.028587 0.333333
v 0.333333 2.028587 0.333334
v 0.333333 -2.028587 -0.333333
v 0.333333 -2.028587 0.333333
v -0.333333 -2.028587 0.333333
v -0.333333 -2.028587 -0.333334
v 0.333333 -0.333333 2.028587
v 0.333333 0.333333 2.028587
v -0.333334 0.333333 2.028587
v -0.333334 -0.333333 2.028587
v 0.333334 0.333333 -2.028587
v 0.333334 -0.333333 -2.028587
v -0.333333 -0.333333 -2.028587
v -0.333333 0.333333 -2.028587
v -2.028587 -0.333333 0.333333
v -2.028587 0.333333 0.333333
v -2.028587 0.333333 -0.333334
v -2.028587 -0.333333 -0.333334
v 2.028587 -0.333333 -0.333333
v 2.028587 0.333333 -0.333333
v 2.028587 0.333333 0.333334
v 2.028587 -0.333333 0.333334
v 0.333333 2.028587 -0.333333
v -0.333333 2.028587 -0.333333
v -0.333334 2.028587 0.333333
v 0.333333 2.028587 0.333334
v 0.333333 -2.028587 -0.333333
v 0.333333 -2.028587 0.333333
v -0.333333 -2.028587 0.333333
v -0.333333 -2.028587 -0.333334
v 0.333333 0.333333 2.028587
v 0.333333 -0.333333 2.028587
v -0.333334 0.333333 2.028587
v -0.333334 -0.333333 2.028587
v 0.333334 -0.333333 -2.028587
v 0.333334 0.333333 -2.028587
v -0.333333 -0.333333 -2.028587
v -0.333333 0.333333 -2.028587
v -2.028587 0.333333 0.333333
v -2.028587 -0.333333 0.333333
v -2.028587 0.333333 -0.333334
v -2.028587 -0.333333 -0.333334
v 2.028587 0.333333 -0.333333
v 2.028587 -0.333333 -0.333333
v 2.028587 0.333333 0.333334
v 2.028587 -0.333333 0.333334
v -0.333333 2.028587 -0.333333
v 0.333333 2.028587 -0.333333
v -0.333334 2.028587 0.333333
v 0.333333 2.028587 0.333334
v 0.333333 -2.028587 0.333333
v 0.333333 -2.028587 -0.333333
v -0.333333 -2.028587 0.333333
v -0.333333 -2.028587 -0.333334
v 0.118168 0.118168 2.028587
v 0.118168 -0.118169 2.028587
v -0.118169 0.118168 2.028587
v -0.118169 -0.118169 2.028587
v 0.118169 -0.118168 -2.028587
v 0.118169 0.118169 -2.028587
v -0.118168 -0.118168 -2.028587
v -0.118168 0.118169 -2.028587
v -2.028587 0.118168 0.118168
v -2.028587 -0.118168 0.118168
v -2.028587 0.118168 -0.118169
v -2.028587 -0.118168 -0.118169
v 2.028587 0.118168 -0.118168
v 2.028587 -0.118168 -0.118168
v 2.028587 0.118168 0.118169
v 2.028587 -0.118168 0.118169
v -0.118168 2.028587 -0.118168
v 0.118168 2.028587 -0.118168
v -0.118169 2.028587 0.118169
v 0.118168 2.028587 0.118169
v 0.118168 -2.028587 0.118168
v 0.118168 -2.028587 -0.118168
v -0.118168 -2.028587 0.118168
v -0.118168 -2.028587 -0.118169
v 0.118168 -2.812272 -0.118168
v 0.118168 -2.812272 0.118168
v -0.118168 -2.812272 0.118168
v -0.118168 -2.812272 -0.118169
v 0.118168 2.812272 -0.118168
v -0.118168 2.812272 -0.118168
v -0.118169 2.812272 0.118169
v 0.118168 2.812272 0.118169
v 2.812272 -0.118168 -0.118168
v 2.812272 0.118168 -0.118168
v 2.812272 0.118168 0.118169
v 2.812272 -0.118168 0.118169
v -2.812272 -0.118168 0.118168
v -2.812272 0.118168 0.118168
v -2.812272 0.118168 -0.118169
v -2.812272 -0.118168 -0.118169
v 0.118168 -0.118169 2.812272
v 0.118168 0.118168 2.812272
v -0.118169 0.118168 2.812272
v -0.118169 -0.118169 2.812272
v 0.118169 0.118169 -2.812272
v 0.118169 -0.118168 -2.812272
v -0.118168 -0.118168 -2.812272
v -0.118168 0.118169 -2.812272
vn 0.0000 -1.0000 0.0000
vn 0.0000 1.0000 0.0000
vn 1.0000 0.0000 0.0000
vn -0.0000 0.0000 1.0000
vn -1.0000 -0.0000 -0.0000
vn 0.0000 0.0000 -1.0000
usemtl Material
s off
f 56//1 16//1 3//1 19//1
f 52//2 31//2 7//2 30//2
f 48//3 26//3 6//3 18//3
f 44//4 30//4 7//4 22//4
f 40//5 32//5 8//5 24//5
f 36//6 12//6 4//6 23//6
f 28//6 34//6 24//6 8//6
f 34//6 36//6 23//6 24//6
f 5//6 14//6 33//6 27//6
f 27//6 33//6 34//6 28//6
f 14//6 13//6 35//6 33//6
f 52//4 50//4 70//4 72//4
f 13//6 1//6 11//6 35//6
f 35//6 11//6 12//6 36//6
f 20//5 38//5 23//5 4//5
f 38//5 40//5 24//5 23//5
f 3//5 21//5 37//5 19//5
f 19//5 37//5 38//5 20//5
f 21//5 22//5 39//5 37//5
f 53//4 55//4 75//4 73//4
f 22//5 7//5 31//5 39//5
f 39//5 31//5 32//5 40//5
f 16//4 42//4 21//4 3//4
f 42//4 44//4 22//4 21//4
f 2//4 17//4 41//4 15//4
f 15//4 41//4 42//4 16//4
f 17//4 18//4 43//4 41//4
f 43//4 44//4 100//4 99//4
f 18//4 6//4 29//4 43//4
f 43//4 29//4 30//4 44//4
f 10//3 46//3 17//3 2//3
f 46//3 48//3 18//3 17//3
f 1//3 13//3 45//3 9//3
f 9//3 45//3 46//3 10//3
f 13//3 14//3 47//3 45//3
f 56//4 54//4 74//4 76//4
f 14//3 5//3 25//3 47//3
f 47//3 25//3 26//3 48//3
f 26//2 50//2 29//2 6//2
f 50//2 52//2 30//2 29//2
f 5//2 27//2 49//2 25//2
f 25//2 49//2 50//2 26//2
f 27//2 28//2 51//2 49//2
f 47//4 48//4 68//4 67//4
f 28//2 8//2 32//2 51//2
f 51//2 32//2 31//2 52//2
f 12//1 54//1 20//1 4//1
f 54//1 56//1 19//1 20//1
f 1//1 9//1 53//1 11//1
f 11//1 53//1 54//1 12//1
f 9//1 10//1 55//1 53//1
f 51//4 52//4 72//4 71//4
f 10//1 2//1 15//1 55//1
f 55//1 15//1 16//1 56//1
f 76//4 74//4 94//4 96//4
f 69//4 71//4 91//4 89//4
f 66//4 65//4 85//4 86//4
f 67//4 68//4 88//4 87//4
f 60//4 58//4 78//4 80//4
f 39//4 40//4 64//4 63//4
f 49//4 51//4 71//4 69//4
f 54//4 53//4 73//4 74//4
f 48//4 46//4 66//4 68//4
f 35//4 36//4 60//4 59//4
f 45//4 47//4 67//4 65//4
f 50//4 49//4 69//4 70//4
f 46//4 45//4 65//4 66//4
f 40//4 38//4 62//4 64//4
f 37//4 39//4 63//4 61//4
f 36//4 34//4 58//4 60//4
f 33//4 35//4 59//4 57//4
f 38//4 37//4 61//4 62//4
f 55//4 56//4 76//4 75//4
f 34//4 33//4 57//4 58//4
f 96//4 94//4 118//4 120//4
f 89//4 91//4 115//4 113//4
f 86//4 85//4 109//4 110//4
f 87//4 88//4 112//4 111//4
f 80//4 78//4 102//4 104//4
f 57//4 59//4 79//4 77//4
f 64//4 62//4 82//4 84//4
f 71//4 72//4 92//4 91//4
f 70//4 69//4 89//4 90//4
f 73//4 75//4 95//4 93//4
f 59//4 60//4 80//4 79//4
f 58//4 57//4 77//4 78//4
f 61//4 63//4 83//4 81//4
f 68//4 66//4 86//4 88//4
f 75//4 76//4 96//4 95//4
f 74//4 73//4 93//4 94//4
f 63//4 64//4 84//4 83//4
f 62//4 61//4 81//4 82//4
f 65//4 67//4 87//4 85//4
f 72//4 70//4 90//4 92//4
f 97//4 99//4 123//4 121//4
f 116//4 114//4 138//4 140//4
f 109//4 111//4 135//4 133//4
f 106//4 105//4 129//4 130//4
f 107//4 108//4 132//4 131//4
f 100//4 98//4 122//4 124//4
f 77//4 79//4 103//4 101//4
f 84//4 82//4 106//4 108//4
f 91//4 92//4 116//4 115//4
f 90//4 89//4 113//4 114//4
f 93//4 95//4 119//4 117//4
f 79//4 80//4 104//4 103//4
f 44//4 42//4 98//4 100//4
f 78//4 77//4 101//4 102//4
f 81//4 83//4 107//4 105//4
f 41//4 43//4 99//4 97//4
f 88//4 86//4 110//4 112//4
f 95//4 96//4 120//4 119//4
f 94//4 93//4 117//4 118//4
f 42//4 41//4 97//4 98//4
f 83//4 84//4 108//4 107//4
f 82//4 81//4 105//4 106//4
f 85//4 87//4 111//4 109//4
f 92//4 90//4 114//4 116//4
f 139//4 140//4 164//4 163//4
f 132//4 130//4 154//4 156//4
f 125//4 127//4 151//4 149//4
f 122//4 121//4 145//4 146//4
f 144//4 142//4 166//4 168//4
f 123//4 124//4 148//4 147//4
f 104//4 102//4 126//4 128//4
f 111//4 112//4 136//4 135//4
f 110//4 109//4 133//4 134//4
f 113//4 115//4 139//4 137//4
f 99//4 100//4 124//4 123//4
f 120//4 118//4 142//4 144//4
f 98//4 97//4 121//4 122//4
f 101//4 103//4 127//4 125//4
f 108//4 106//4 130//4 132//4
f 115//4 116//4 140//4 139//4
f 114//4 113//4 137//4 138//4
f 117//4 119//4 143//4 141//4
f 103//4 104//4 128//4 127//4
f 102//4 101//4 125//4 126//4
f 105//4 107//4 131//4 129//4
f 112//4 110//4 134//4 136//4
f 119//4 120//4 144//4 143//4
f 118//4 117//4 141//4 142//4
f 207//4 208//4 232//4 231//4
f 169//4 193//4 196//4 172//4
f 172//4 196//4 195//4 171//4
f 171//4 195//4 194//4 170//4
f 170//4 194//4 193//4 169//4
f 216//4 213//4 238//4 240//4
f 138//4 137//4 161//4 162//4
f 141//4 143//4 167//4 165//4
f 127//4 128//4 152//4 151//4
f 126//4 125//4 149//4 150//4
f 129//4 131//4 155//4 153//4
f 136//4 134//4 158//4 160//4
f 143//4 144//4 168//4 167//4
f 142//4 141//4 165//4 166//4
f 124//4 122//4 146//4 148//4
f 131//4 132//4 156//4 155//4
f 130//4 129//4 153//4 154//4
f 133//4 135//4 159//4 157//4
f 140//4 138//4 162//4 164//4
f 121//4 123//4 147//4 145//4
f 128//4 126//4 150//4 152//4
f 135//4 136//4 160//4 159//4
f 134//4 133//4 157//4 158//4
f 137//4 139//4 163//4 161//4
f 235//2 236//2 260//2 259//2
f 147//3 170//3 169//3 145//3
f 148//2 171//2 170//2 147//2
f 146//5 172//5 171//5 148//5
f 145//1 169//1 172//1 146//1
f 230//3 229//3 253//3 254//3
f 151//3 174//3 173//3 149//3
f 152//1 175//1 174//1 151//1
f 150//5 176//5 175//5 152//5
f 149//2 173//2 176//2 150//2
f 229//3 231//3 255//3 253//3
f 155//4 178//4 177//4 153//4
f 156//2 179//2 178//2 155//2
f 154//6 180//6 179//6 156//6
f 153//1 177//1 180//1 154//1
f 224//6 222//6 246//6 248//6
f 159//6 182//6 181//6 157//6
f 160//2 183//2 182//2 159//2
f 158//4 184//4 183//4 160//4
f 157//1 181//1 184//1 158//1
f 219//4 220//4 244//4 243//4
f 163//6 186//6 185//6 161//6
f 164//5 187//5 186//5 163//5
f 162//4 188//4 187//4 164//4
f 161//3 185//3 188//3 162//3
f 236//2 234//2 258//2 260//2
f 167//3 190//3 189//3 165//3
f 168//4 191//4 190//4 167//4
f 166//5 192//5 191//5 168//5
f 165//6 189//6 192//6 166//6
f 174//4 198//4 197//4 173//4
f 175//4 199//4 198//4 174//4
f 176//4 200//4 199//4 175//4
f 173//4 197//4 200//4 176//4
f 209//4 210//4 233//4 234//4
f 178//4 202//4 201//4 177//4
f 179//4 203//4 202//4 178//4
f 180//4 204//4 203//4 179//4
f 177//4 201//4 204//4 180//4
f 199//4 200//4 224//4 223//4
f 182//4 206//4 205//4 181//4
f 183//4 207//4 206//4 182//4
f 184//4 208//4 207//4 183//4
f 181//4 205//4 208//4 184//4
f 210//4 211//4 235//4 233//4
f 186//4 210//4 209//4 185//4
f 187//4 211//4 210//4 186//4
f 188//4 212//4 211//4 187//4
f 185//4 209//4 212//4 188//4
f 208//4 205//4 230//4 232//4
f 190//4 214//4 213//4 189//4
f 191//4 215//4 214//4 190//4
f 192//4 216//4 215//4 191//4
f 189//4 213//4 216//4 192//4
f 196//4 193//4 218//4 220//4
f 198//4 199//4 223//4 221//4
f 197//4 198//4 221//4 222//4
f 215//4 216//4 240//4 239//4
f 204//4 201//4 226//4 228//4
f 206//4 207//4 231//4 229//4
f 195//4 196//4 220//4 219//4
f 205//4 206//4 229//4 230//4
f 212//4 209//4 234//4 236//4
f 214//4 215//4 239//4 237//4
f 203//4 204//4 228//4 227//4
f 194//4 195//4 219//4 217//4
f 213//4 214//4 237//4 238//4
f 193//4 194//4 217//4 218//4
f 211//4 212//4 236//4 235//4
f 200//4 197//4 222//4 224//4
f 202//4 203//4 227//4 225//4
f 201//4 202//4 225//4 226//4
f 217//4 219//4 243//4 241//4
f 240//1 238//1 262//1 264//1
f 218//4 217//4 241//4 242//4
f 223//6 224//6 248//6 247//6
f 228//5 226//5 250//5 252//5
f 233//2 235//2 259//2 257//2
f 234//2 233//2 257//2 258//2
f 239//1 240//1 264//1 263//1
f 221//6 223//6 247//6 245//6
f 222//6 221//6 245//6 246//6
f 227//5 228//5 252//5 251//5
f 232//3 230//3 254//3 256//3
f 237//1 239//1 263//1 261//1
f 238//1 237//1 261//1 262//1
f 220//4 218//4 242//4 244//4
f 225//5 227//5 251//5 249//5
f 226//5 225//5 249//5 250//5
f 231//3 232//3 256//3 255//3
f 265//1 266//1 267//1 268//1
f 261//3 266//3 265//3 262//3
f 263//4 267//4 266//4 261//4
f 264//5 268//5 267//5 263//5
f 262//6 265//6 268//6 264//6
f 269//2 270//2 271//2 272//2
f 257//6 270//6 269//6 258//6
f 259//5 271//5 270//5 257//5
f 260//4 272//4 271//4 259//4
f 258//3 269//3 272//3 260//3
f 273//3 274//3 275//3 276//3
f 253//6 274//6 273//6 254//6
f 255//2 275//2 274//2 253//2
f 256//4 276//4 275//4 255//4
f 254//1 273//1 276//1 256//1
f 277//5 278//5 279//5 280//5
f 249//4 278//4 277//4 250//4
f 251//2 279//2 278//2 249//2
f 252//6 280//6 279//6 251//6
f 250//1 277//1 280//1 252//1
f 281//4 282//4 283//4 284//4
f 241//3 282//3 281//3 242//3
f 243//2 283//2 282//2 241//2
f 244//5 284//5 283//5 243//5
f 242//1 281//1 284//1 244//1
f 285//6 286//6 287//6 288//6
f 245//3 286//3 285//3 246//3
f 247//1 287//1 286//1 245//1
f 248//5 288//5 287//5 247//5
f 246//2 285//2 288//2 248//2